# xmcd CD database file
#
# Track frame offsets:
#	150
#	2561
#	9957
#	18837
#	27417
#	32303
#	36264
#	41381
#	44459
#	54489
#	59839
#	65294
#	70819
#	79282
#	84053
#	88945
#	91225
#	94148
#	97482
#	100684
#	105087
#	107942
#	111099
#	113676
#	119647
#	123370
#	125789
#	135950
#	145669
#	154584
#	159807
#	164503
#	175028
#	184649
#	189529
#	192361
#	207657
#	219691
#	226131
#
# Disc length: 3062 seconds
#
# Revision: 0
# Processed by: cddbd v1.5.2PL0 Copyright (c) Steve Scherf et al.
# Submitted via: CDex 1.51
#
DISCID=060bf427
DTITLE=Daryll Winston - Play Blues Guitar CD
DYEAR=1997
DGENRE=Blues
TTITLE0=Introduction
TTITLE1=blues chords in A
TTITLE2=blues pattern in A
TTITLE3=12 bar blues in A
TTITLE4=blues chords in E
TTITLE5=blues pattern in E
TTITLE6=CC Rider
TTITLE7=strum patterns A chord
TTITLE8=strum patterns variations
TTITLE9=worried man blues
TTITLE10=bass-chord strum patterns
TTITLE11=going down that road feelin bad
TTITLE12=bass-chord strum pattern variations
TTITLE13=reading tab
TTITLE14=hammerons pullons, etc
TTITLE15=fills and turnaounds
TTITLE16=fill variations
TTITLE17=turnaround chords
TTITLE18=turnaround solo riff
TTITLE19=corinna corinna
TTITLE20=intros and endings
TTITLE21=intro solo riffs
TTITLE22=ending chord pattern
TTITLE23=ending solo riff
TTITLE24=chilly wind blues
TTITLE25=solo technique
TTITLE26=riff variations
TTITLE27=stagolee
TTITLE28=improvising riffs
TTITLE29=midnight special
TTITLE30=minor blues
TTITLE31=st. james infirmary
TTITLE32=country blues
TTITLE33=risin' river blues
TTITLE34=jazz blues
TTITLE35=st. louis blues
TTITLE36=rock blues
TTITLE37=crossroad blues
TTITLE38=conclusion
EXTD=YEAR: 1997
EXTT0=
EXTT1=
EXTT2=
EXTT3=
EXTT4=
EXTT5=
EXTT6=
EXTT7=
EXTT8=
EXTT9=
EXTT10=
EXTT11=
EXTT12=
EXTT13=
EXTT14=
EXTT15=
EXTT16=
EXTT17=
EXTT18=
EXTT19=
EXTT20=
EXTT21=
EXTT22=
EXTT23=
EXTT24=
EXTT25=
EXTT26=
EXTT27=
EXTT28=
EXTT29=
EXTT30=
EXTT31=
EXTT32=
EXTT33=
EXTT34=
EXTT35=
EXTT36=
EXTT37=
EXTT38=
PLAYORDER=
